<svg width="1114" height="900" viewBox="0 0 1114 900" fill="none" xmlns="http://www.w3.org/2000/svg">
<path d="M1305.93 988.395H1066.33L654.272 576.151L653.918 575.797L653.565 576.151L241.502 988.395H1.9062L533.767 456.3L534.12 455.946L533.767 455.593L1.90617 -76.498H241.502L653.565 335.74L653.918 336.094L654.272 335.74L1066.33 -76.498H1305.93L774.068 455.593L773.715 455.946L774.068 456.3L1305.93 988.395Z" fill="black"/>
<path d="M1305.93 988.395H1066.33L654.272 576.151L653.918 575.797L653.565 576.151L241.502 988.395H1.9062L533.767 456.3L534.12 455.946L533.767 455.593L1.90617 -76.498H241.502L653.565 335.74L653.918 336.094L654.272 335.74L1066.33 -76.498H1305.93L774.068 455.593L773.715 455.946L774.068 456.3L1305.93 988.395Z" stroke="black"/>
<path d="M1305.93 988.395H1066.33L654.272 576.151L653.918 575.797L653.565 576.151L241.502 988.395H1.9062L533.767 456.3L534.12 455.946L533.767 455.593L1.90617 -76.498H241.502L653.565 335.74L653.918 336.094L654.272 335.74L1066.33 -76.498H1305.93L774.068 455.593L773.715 455.946L774.068 456.3L1305.93 988.395Z" stroke="black" stroke-opacity="0.2"/>
</svg>
